<svg width="30" height="30" viewBox="0 0 30 30" fill="none" xmlns="http://www.w3.org/2000/svg">
<path d="M15 0C23.2843 0 30 6.71573 30 15C30 23.2843 23.2843 30 15 30C6.71573 30 0 23.2843 0 15C0 6.71573 6.71573 0 15 0ZM15.4941 5.5C10.5779 5.50011 6.57715 9.50117 6.5752 14.4189C6.57453 15.991 6.98508 17.5252 7.76562 18.8779L6.5 23.5L11.2285 22.2598C12.5313 22.9703 13.9985 23.3452 15.4912 23.3457H15.4941C20.4119 23.3437 24.4121 19.3425 24.4141 14.4258C24.415 12.0426 23.4876 9.80204 21.8037 8.11621C20.1197 6.43024 17.8802 5.50103 15.4941 5.5Z" fill="#F5F5F5"/>
<path d="M15.4977 7.00659C17.4777 7.00738 19.3394 7.7792 20.739 9.18042C22.1386 10.5817 22.9087 12.4446 22.9079 14.4255C22.9062 18.5132 19.5807 21.8384 15.4948 21.8386H15.4919C14.1616 21.8381 12.8567 21.4808 11.7184 20.8054L11.447 20.6453L8.6413 21.3806L9.39032 18.6453L9.21454 18.365C8.47247 17.1847 8.08021 15.8204 8.08075 14.4197C8.08237 10.3322 11.4085 7.00659 15.4977 7.00659ZM12.3366 10.2996C12.188 10.2996 11.9462 10.3557 11.7419 10.5789C11.5374 10.8021 10.9626 11.3416 10.9626 12.4382C10.9627 13.5352 11.7603 14.5952 11.8718 14.7439C11.9832 14.8928 13.4437 17.1438 15.6794 18.1091C16.211 18.3387 16.6262 18.4752 16.9499 18.5779C17.4835 18.7475 17.9693 18.7241 18.3532 18.6667C18.7814 18.6028 19.6721 18.1276 19.8581 17.6072C20.0437 17.0865 20.0437 16.6396 19.988 16.5466C19.9322 16.4539 19.7837 16.3982 19.5612 16.2869C19.3384 16.1753 18.2421 15.6357 18.0378 15.5613C17.8337 15.487 17.6853 15.4506 17.5368 15.6736C17.3882 15.8967 16.9609 16.3977 16.8308 16.5466C16.717 16.6768 16.6034 16.7076 16.4274 16.6384L16.0934 16.49C15.7575 16.3411 15.1938 16.0663 14.5554 15.4968C13.8931 14.906 13.4462 14.1762 13.3161 13.9529C13.1861 13.7298 13.3022 13.6089 13.4138 13.4978C13.514 13.3979 13.6363 13.2372 13.7477 13.1072C13.859 12.9772 13.8963 12.8844 13.9704 12.7361C14.0447 12.5873 14.0076 12.457 13.9518 12.3455C13.8961 12.2339 13.451 11.1364 13.2653 10.6902C13.0844 10.2557 12.9001 10.3142 12.7634 10.3074C12.6336 10.3009 12.485 10.2996 12.3366 10.2996Z" fill="#F5F5F5"/>
</svg>
