<svg xmlns="http://www.w3.org/2000/svg">
  <symbol id="email-icon" viewBox="0 0 30 31">
    <path
      d="M15 0.880615C23.2842 0.880615 29.9998 7.53117 30 15.7351C30 23.9392 23.2843 30.5906 15 30.5906C6.71573 30.5906 0 23.9392 0 15.7351C0.000188396 7.53117 6.71584 0.880615 15 0.880615ZM22.4092 13.3591C22.3896 13.3696 16.4915 16.5359 15.209 16.5359C14.0421 16.5359 8.05981 13.3858 8.00977 13.3591L8 20.489C8.00001 21.145 8.53819 21.6775 9.20117 21.6775H21.2168C21.881 21.6775 22.4189 21.145 22.4189 20.489L22.4092 13.3591ZM9.20117 9.7937C8.53759 9.79372 8 10.3262 8 10.9822V11.5115C8.02217 11.5239 14.0393 14.9021 15.209 14.9021C16.4372 14.9021 22.4092 11.5759 22.4092 11.5759L22.4189 10.9822C22.4189 10.3262 21.881 9.7937 21.2168 9.7937H9.20117Z"
    />
  </symbol>

  <symbol id="tg-icon" viewBox="0 0 30 31">
    <path
      d="M15 0C23.2843 0 30 6.71573 30 15C30 23.2843 23.2843 30 15 30C6.71573 30 0 23.2843 0 15C0 6.71573 6.71573 0 15 0ZM22.3701 10.2812C22.6218 9.27143 21.985 8.81371 21.3252 9.11328L6.87598 14.6846C5.89037 15.0801 5.89614 15.6298 6.69629 15.875L10.4043 17.0322L18.9883 11.6172C19.3934 11.3715 19.7659 11.5036 19.4609 11.7744L12.5049 18.0508V18.0518L12.25 21.875C12.625 21.875 12.7907 21.7035 13 21.5L14.8018 19.748L18.5498 22.5176C19.2396 22.8982 19.7373 22.7009 19.9092 21.877L22.3701 10.2812Z"
    />
  </symbol>

  <symbol id="wa-icon" viewBox="0 0 30 31">
    <path
      d="M15 0C23.2843 0 30 6.71573 30 15C30 23.2843 23.2843 30 15 30C6.71573 30 0 23.2843 0 15C0 6.71573 6.71573 0 15 0ZM15.4941 5.5C10.5779 5.50011 6.57715 9.50117 6.5752 14.4189C6.57453 15.991 6.98508 17.5252 7.76562 18.8779L6.5 23.5L11.2285 22.2598C12.5313 22.9703 13.9985 23.3452 15.4912 23.3457H15.4941C20.4119 23.3437 24.4121 19.3425 24.4141 14.4258C24.415 12.0426 23.4876 9.80204 21.8037 8.11621C20.1197 6.43024 17.8802 5.50103 15.4941 5.5Z"
    />
    <path
      d="M15.4977 7.00659C17.4777 7.00738 19.3394 7.7792 20.739 9.18042C22.1386 10.5817 22.9087 12.4446 22.9079 14.4255C22.9062 18.5132 19.5807 21.8384 15.4948 21.8386H15.4919C14.1616 21.8381 12.8567 21.4808 11.7184 20.8054L11.447 20.6453L8.6413 21.3806L9.39032 18.6453L9.21454 18.365C8.47247 17.1847 8.08021 15.8204 8.08075 14.4197C8.08237 10.3322 11.4085 7.00659 15.4977 7.00659ZM12.3366 10.2996C12.188 10.2996 11.9462 10.3557 11.7419 10.5789C11.5374 10.8021 10.9626 11.3416 10.9626 12.4382C10.9627 13.5352 11.7603 14.5952 11.8718 14.7439C11.9832 14.8928 13.4437 17.1438 15.6794 18.1091C16.211 18.3387 16.6262 18.4752 16.9499 18.5779C17.4835 18.7475 17.9693 18.7241 18.3532 18.6667C18.7814 18.6028 19.6721 18.1276 19.8581 17.6072C20.0437 17.0865 20.0437 16.6396 19.988 16.5466C19.9322 16.4539 19.7837 16.3982 19.5612 16.2869C19.3384 16.1753 18.2421 15.6357 18.0378 15.5613C17.8337 15.487 17.6853 15.4506 17.5368 15.6736C17.3882 15.8967 16.9609 16.3977 16.8308 16.5466C16.717 16.6768 16.6034 16.7076 16.4274 16.6384L16.0934 16.49C15.7575 16.3411 15.1938 16.0663 14.5554 15.4968C13.8931 14.906 13.4462 14.1762 13.3161 13.9529C13.1861 13.7298 13.3022 13.6089 13.4138 13.4978C13.514 13.3979 13.6363 13.2372 13.7477 13.1072C13.859 12.9772 13.8963 12.8844 13.9704 12.7361C14.0447 12.5873 14.0076 12.457 13.9518 12.3455C13.8961 12.2339 13.451 11.1364 13.2653 10.6902C13.0844 10.2557 12.9001 10.3142 12.7634 10.3074C12.6336 10.3009 12.485 10.2996 12.3366 10.2996Z"
    />
  </symbol>

  <symbol id="gh-icon" viewBox="0 0 30 31">
    <path
      d="M15.027 0.112549C6.75919 0.112549 0.0548096 6.92999 0.0548096 15.3404C0.0548096 22.0686 4.34481 27.7767 10.2937 29.7903C11.042 29.9313 11.3167 29.4599 11.3167 29.0577C11.3167 28.6946 11.3028 27.495 11.2964 26.2226C7.13109 27.1438 6.25216 24.4259 6.25216 24.4259C5.57109 22.6657 4.58977 22.1977 4.58977 22.1977C3.23134 21.2525 4.69216 21.272 4.69216 21.272C6.19564 21.3791 6.98729 22.8412 6.98729 22.8412C8.32266 25.1693 10.4899 24.4962 11.3442 24.1071C11.4786 23.1231 11.8666 22.4509 12.2948 22.0708C8.96927 21.6858 5.4734 20.38 5.4734 14.545C5.4734 12.8825 6.05828 11.524 7.01605 10.4576C6.86059 10.0738 6.34812 8.52522 7.16109 6.42766C7.16109 6.42766 8.41836 6.01839 11.2795 7.9886C12.4738 7.6512 13.7546 7.48199 15.027 7.47619C16.2994 7.48199 17.5813 7.6512 18.7778 7.9886C21.6355 6.01839 22.891 6.42766 22.891 6.42766C23.706 8.52522 23.1932 10.0738 23.0378 10.4576C23.9978 11.524 24.5787 12.8825 24.5787 14.545C24.5787 20.3939 21.0761 21.6817 17.7422 22.0587C18.2792 22.5313 18.7577 23.458 18.7577 24.8788C18.7577 26.916 18.7403 28.5559 18.7403 29.0577C18.7403 29.463 19.0099 29.9378 19.7688 29.7883C25.7145 27.7724 29.999 22.0663 29.999 15.3404C29.999 6.92999 23.2956 0.112549 15.027 0.112549Z"
      />
    <path
      d="M5.72556 21.9764C5.69259 22.0523 5.57556 22.0748 5.46895 22.0228C5.36035 21.9732 5.29936 21.87 5.33457 21.7941C5.3668 21.7162 5.48407 21.6948 5.59242 21.7465C5.70126 21.7964 5.76325 21.9005 5.72556 21.9764Z"
      />
    <path
      d="M6.332 22.6644C6.26059 22.7318 6.121 22.7005 6.02629 22.5941C5.92836 22.4879 5.91001 22.3459 5.98241 22.2776C6.05605 22.2103 6.19142 22.2418 6.2896 22.348C6.38753 22.4554 6.40662 22.5963 6.332 22.6644Z"
      />
    <path
      d="M6.92231 23.5414C6.83057 23.6062 6.68057 23.5454 6.58784 23.41C6.49611 23.2746 6.49611 23.1122 6.58983 23.0471C6.6828 22.9821 6.83057 23.0406 6.92454 23.175C7.01602 23.3124 7.01602 23.4751 6.92231 23.5414Z"
      />
    <path
      d="M7.7311 24.3888C7.64903 24.4809 7.47424 24.4562 7.34631 24.3306C7.2154 24.2078 7.17895 24.0335 7.26127 23.9415C7.34432 23.8492 7.52011 23.8752 7.64903 23.9997C7.77895 24.1223 7.81862 24.2978 7.7311 24.3888Z"
      />
    <path
      d="M8.84681 24.8807C8.81061 25 8.64226 25.0542 8.47267 25.0035C8.30334 24.9513 8.19251 24.8116 8.22672 24.6911C8.26193 24.571 8.43102 24.5145 8.60185 24.5688C8.77094 24.6207 8.88201 24.7594 8.84681 24.8807Z"
      />
    <path
      d="M10.0721 24.972C10.0763 25.0976 9.93251 25.2017 9.7545 25.2038C9.57549 25.208 9.43069 25.1064 9.42871 24.9829C9.42871 24.856 9.56929 24.7529 9.7483 24.7498C9.92631 24.7463 10.0721 24.8472 10.0721 24.972Z"
      />
    <path
      d="M11.2123 24.7747C11.2337 24.8973 11.1099 25.0231 10.9332 25.0564C10.7594 25.0889 10.5984 25.0133 10.5764 24.8917C10.5548 24.7661 10.6808 24.6403 10.8543 24.6078C11.0313 24.5765 11.1898 24.6501 11.2123 24.7747Z"
      />
  </symbol>
</svg>