<svg width="30" height="31" viewBox="0 0 30 31" fill="none" xmlns="http://www.w3.org/2000/svg">
<path d="M15 0.880615C23.2842 0.880615 29.9998 7.53117 30 15.7351C30 23.9392 23.2843 30.5906 15 30.5906C6.71573 30.5906 0 23.9392 0 15.7351C0.000188396 7.53117 6.71584 0.880615 15 0.880615ZM22.4092 13.3591C22.3896 13.3696 16.4915 16.5359 15.209 16.5359C14.0421 16.5359 8.05981 13.3858 8.00977 13.3591L8 20.489C8.00001 21.145 8.53819 21.6775 9.20117 21.6775H21.2168C21.881 21.6775 22.4189 21.145 22.4189 20.489L22.4092 13.3591ZM9.20117 9.7937C8.53759 9.79372 8 10.3262 8 10.9822V11.5115C8.02217 11.5239 14.0393 14.9021 15.209 14.9021C16.4372 14.9021 22.4092 11.5759 22.4092 11.5759L22.4189 10.9822C22.4189 10.3262 21.881 9.7937 21.2168 9.7937H9.20117Z" fill="white"/>
</svg>
