<svg width="30" height="30" viewBox="0 0 30 30" fill="none" xmlns="http://www.w3.org/2000/svg">
<path d="M15.027 0.112549C6.75919 0.112549 0.0548096 6.92999 0.0548096 15.3404C0.0548096 22.0686 4.34481 27.7767 10.2937 29.7903C11.042 29.9313 11.3167 29.4599 11.3167 29.0577C11.3167 28.6946 11.3028 27.495 11.2964 26.2226C7.13109 27.1438 6.25216 24.4259 6.25216 24.4259C5.57109 22.6657 4.58977 22.1977 4.58977 22.1977C3.23134 21.2525 4.69216 21.272 4.69216 21.272C6.19564 21.3791 6.98729 22.8412 6.98729 22.8412C8.32266 25.1693 10.4899 24.4962 11.3442 24.1071C11.4786 23.1231 11.8666 22.4509 12.2948 22.0708C8.96927 21.6858 5.4734 20.38 5.4734 14.545C5.4734 12.8825 6.05828 11.524 7.01605 10.4576C6.86059 10.0738 6.34812 8.52522 7.16109 6.42766C7.16109 6.42766 8.41836 6.01839 11.2795 7.9886C12.4738 7.6512 13.7546 7.48199 15.027 7.47619C16.2994 7.48199 17.5813 7.6512 18.7778 7.9886C21.6355 6.01839 22.891 6.42766 22.891 6.42766C23.706 8.52522 23.1932 10.0738 23.0378 10.4576C23.9978 11.524 24.5787 12.8825 24.5787 14.545C24.5787 20.3939 21.0761 21.6817 17.7422 22.0587C18.2792 22.5313 18.7577 23.458 18.7577 24.8788C18.7577 26.916 18.7403 28.5559 18.7403 29.0577C18.7403 29.463 19.0099 29.9378 19.7688 29.7883C25.7145 27.7724 29.999 22.0663 29.999 15.3404C29.999 6.92999 23.2956 0.112549 15.027 0.112549Z" fill="#F5F5F5"/>
<path d="M5.72556 21.9764C5.69259 22.0523 5.57556 22.0748 5.46895 22.0228C5.36035 21.9732 5.29936 21.87 5.33457 21.7941C5.3668 21.7162 5.48407 21.6948 5.59242 21.7465C5.70126 21.7964 5.76325 21.9005 5.72556 21.9764Z" fill="#F5F5F5"/>
<path d="M6.332 22.6644C6.26059 22.7318 6.121 22.7005 6.02629 22.5941C5.92836 22.4879 5.91001 22.3459 5.98241 22.2776C6.05605 22.2103 6.19142 22.2418 6.2896 22.348C6.38753 22.4554 6.40662 22.5963 6.332 22.6644Z" fill="#F5F5F5"/>
<path d="M6.92231 23.5414C6.83057 23.6062 6.68057 23.5454 6.58784 23.41C6.49611 23.2746 6.49611 23.1122 6.58983 23.0471C6.6828 22.9821 6.83057 23.0406 6.92454 23.175C7.01602 23.3124 7.01602 23.4751 6.92231 23.5414Z" fill="#F5F5F5"/>
<path d="M7.7311 24.3888C7.64903 24.4809 7.47424 24.4562 7.34631 24.3306C7.2154 24.2078 7.17895 24.0335 7.26127 23.9415C7.34432 23.8492 7.52011 23.8752 7.64903 23.9997C7.77895 24.1223 7.81862 24.2978 7.7311 24.3888Z" fill="#F5F5F5"/>
<path d="M8.84681 24.8807C8.81061 25 8.64226 25.0542 8.47267 25.0035C8.30334 24.9513 8.19251 24.8116 8.22672 24.6911C8.26193 24.571 8.43102 24.5145 8.60185 24.5688C8.77094 24.6207 8.88201 24.7594 8.84681 24.8807Z" fill="#F5F5F5"/>
<path d="M10.0721 24.972C10.0763 25.0976 9.93251 25.2017 9.7545 25.2038C9.57549 25.208 9.43069 25.1064 9.42871 24.9829C9.42871 24.856 9.56929 24.7529 9.7483 24.7498C9.92631 24.7463 10.0721 24.8472 10.0721 24.972Z" fill="#F5F5F5"/>
<path d="M11.2123 24.7747C11.2337 24.8973 11.1099 25.0231 10.9332 25.0564C10.7594 25.0889 10.5984 25.0133 10.5764 24.8917C10.5548 24.7661 10.6808 24.6403 10.8543 24.6078C11.0313 24.5765 11.1898 24.6501 11.2123 24.7747Z" fill="#F5F5F5"/>
</svg>
