<svg width="30" height="30" viewBox="0 0 30 30" fill="none" xmlns="http://www.w3.org/2000/svg">
<path d="M15 0C23.2843 0 30 6.71573 30 15C30 23.2843 23.2843 30 15 30C6.71573 30 0 23.2843 0 15C0 6.71573 6.71573 0 15 0ZM22.3701 10.2812C22.6218 9.27143 21.985 8.81371 21.3252 9.11328L6.87598 14.6846C5.89037 15.0801 5.89614 15.6298 6.69629 15.875L10.4043 17.0322L18.9883 11.6172C19.3934 11.3715 19.7659 11.5036 19.4609 11.7744L12.5049 18.0508V18.0518L12.25 21.875C12.625 21.875 12.7907 21.7035 13 21.5L14.8018 19.748L18.5498 22.5176C19.2396 22.8982 19.7373 22.7009 19.9092 21.877L22.3701 10.2812Z" fill="#F5F5F5"/>
</svg>
